<?xml version="1.0" encoding="utf-8"?>
<!-- Generator: Adobe Illustrator 22.1.0, SVG Export Plug-In . SVG Version: 6.00 Build 0)  -->
<svg version="1.1" id="_x30_" xmlns="http://www.w3.org/2000/svg" xmlns:xlink="http://www.w3.org/1999/xlink" x="0px" y="0px"
	 viewBox="0 0 1190.6 841.9" style="enable-background:new 0 0 1190.6 841.9;" xml:space="preserve">
<style type="text/css">
	.st0{fill:none;stroke:#000000;stroke-width:0.7087;stroke-linecap:round;stroke-linejoin:round;stroke-miterlimit:10;}
</style>
<g>
	<g id="ARC">
		<path class="st0" d="M732.8,636c0-3.3-0.6-6.5-1.7-9.5"/>
	</g>
	<g id="ARC_1_">
		<path class="st0" d="M714.3,662c11.1-3.8,18.5-14.3,18.5-26"/>
	</g>
	<g id="ARC_2_">
		<path class="st0" d="M714.3,662c1,0.2,2,0.3,3,0.5"/>
	</g>
	<g id="ARC_3_">
		<path class="st0" d="M796.4,681.1c-25.9-8.1-52.3-14.3-79.1-18.6"/>
	</g>
	<g id="ARC_4_">
		<path class="st0" d="M796.4,681.1c46.6,14.5,93.9,27,141.6,37.3"/>
	</g>
	<g id="ARC_5_">
		<path class="st0" d="M938,718.4c22.9,4.9,46.4,7.2,69.8,6.7"/>
	</g>
	<g id="ARC_6_">
		<path class="st0" d="M1007.8,725.1c4.3-0.1,8.7-0.2,13-0.3"/>
	</g>
	<g id="ARC_7_">
		<path class="st0" d="M1020.8,724.8c46.3-1.3,83.4-39,84-85.4"/>
	</g>
	<g id="ARC_8_">
		<path class="st0" d="M1104.8,639.4c0-3.3,0-6.6,0-9.9"/>
	</g>
	<g id="ARC_9_">
		<path class="st0" d="M1104.8,629.5c-0.2-14.2-2.7-28.2-7.3-41.6"/>
	</g>
	<g id="ARC_10_">
		<path class="st0" d="M1097.4,587.9c-8.3-23.7-17.1-47.2-26.4-70.5"/>
	</g>
	<g id="ARC_11_">
		<path class="st0" d="M1067.2,443.5c-6.9,24.4-5.6,50.3,3.8,73.9"/>
	</g>
	<g id="ARC_12_">
		<path class="st0" d="M1067.2,443.5c2.7-9.4,5-18.9,7.1-28.4"/>
	</g>
	<g id="ARC_13_">
		<path class="st0" d="M1074.4,415c5.4-24.7,7.3-50,5.8-75.2"/>
	</g>
	<g id="ARC_14_">
		<path class="st0" d="M1080.1,339.8c-4.2-68.5-19.7-135.8-45.8-199.3"/>
	</g>
	<g id="ARC_15_">
		<path class="st0" d="M1034.4,140.5c-4-9.7-12.8-16.6-23.1-18.1"/>
	</g>
	<g id="ARC_16_">
		<path class="st0" d="M1011.2,122.4c-20.1-3-40.4-4.8-60.7-5.5"/>
	</g>
	<g id="LINE">
		<line class="st0" x1="950.5" y1="116.9" x2="950" y2="106.9"/>
	</g>
	<g id="ARC_17_">
		<path class="st0" d="M950,106.9c-17.5-0.5-35-0.2-52.5,1"/>
	</g>
	<g id="LINE_1_">
		<line class="st0" x1="897.6" y1="107.9" x2="897.9" y2="117.8"/>
	</g>
	<g id="ARC_18_">
		<path class="st0" d="M897.9,117.8c-67.1,4.6-132.7,22-193.2,51.2"/>
	</g>
	<g id="ARC_19_">
		<path class="st0" d="M683.4,179.9c-9.2,12.1-6.8,29.4,5.3,38.6c12.1,9.2,29.4,6.8,38.6-5.3s6.8-29.4-5.3-38.6
			c-5-3.8-11.1-5.8-17.3-5.6"/>
	</g>
	<g id="ARC_20_">
		<path class="st0" d="M683.4,179.9c-18.8,10.2-37,21.5-54.5,33.9"/>
	</g>
	<g id="ARC_21_">
		<path class="st0" d="M628.9,213.9c-12.3,8.8-19.7,23-19.7,38.1"/>
	</g>
	<g id="LINE_2_">
		<line class="st0" x1="609.2" y1="252" x2="609.2" y2="311.2"/>
	</g>
	<g id="SPLINE">
		<path class="st0" d="M658.1,412c-2.4-8.3-4.6-16.7-6.6-25.1c-3.1-13-5.6-26.1-10.9-38.5c-4.9-11.6-12.1-22.6-21.6-30.5
			c-3.1-2.6-6.4-4.8-9.9-6.7"/>
	</g>
	<g id="ARC_22_">
		<path class="st0" d="M667.8,448.9c-3-12.4-6.2-24.7-9.7-36.9"/>
	</g>
	<g id="LINE_3_">
		<line class="st0" x1="667.8" y1="448.9" x2="609.2" y2="464.4"/>
	</g>
	<g id="LINE_4_">
		<line class="st0" x1="609.2" y1="464.4" x2="609.2" y2="616.4"/>
	</g>
	<g id="ARC_23_">
		<path class="st0" d="M609.2,616.4c0,8.1,4.4,15.7,11.4,19.7"/>
	</g>
	<g id="ELLIPSE">
		<path class="st0" d="M620.6,636.1c0.2,0.1,0.4,0.2,0.6,0.3"/>
	</g>
	<g id="ARC_24_">
		<path class="st0" d="M621.3,636.4c15.8,8.9,32.9,15.1,50.7,18.3"/>
	</g>
	<g id="ARC_25_">
		<path class="st0" d="M672,654.7c5.4,1,10.9,1.9,16.3,2.9"/>
	</g>
	<g id="ARC_26_">
		<path class="st0" d="M677.8,636c0,8.4,3.9,16.4,10.5,21.7"/>
	</g>
	<g id="ARC_27_">
		<path class="st0" d="M716.2,610.7c-14-6-30.2,0.4-36.2,14.3c-1.5,3.4-2.3,7.2-2.3,10.9"/>
	</g>
	<g id="LINE_5_">
		<line class="st0" x1="716.2" y1="610.7" x2="731.1" y2="626.5"/>
	</g>
	<g id="CIRCLE">
		<path class="st0" d="M1017,128.8c4.9,0,8.9,4,8.9,8.9s-4,8.9-8.9,8.9c-4.9,0-8.9-4-8.9-8.9S1012,128.8,1017,128.8L1017,128.8z"/>
	</g>
	<g id="CIRCLE_1_">
		<path class="st0" d="M806.8,137.7c4.9,0,8.9,4,8.9,8.9s-4,8.9-8.9,8.9c-4.9,0-8.9-4-8.9-8.9S801.9,137.7,806.8,137.7L806.8,137.7z
			"/>
	</g>
	<g id="CIRCLE_2_">
		<path class="st0" d="M625.1,229.6c4.9,0,8.9,4,8.9,8.9s-4,8.9-8.9,8.9c-4.9,0-8.9-4-8.9-8.9S620.2,229.6,625.1,229.6L625.1,229.6z
			"/>
	</g>
	<g id="CIRCLE_3_">
		<path class="st0" d="M628.8,607.2c4.9,0,8.9,4,8.9,8.9c0,4.9-4,8.9-8.9,8.9c-4.9,0-8.9-4-8.9-8.9
			C619.8,611.2,623.8,607.2,628.8,607.2L628.8,607.2z"/>
	</g>
	<g id="CIRCLE_4_">
		<path class="st0" d="M872.6,677.1c4.9,0,8.9,4,8.9,8.9c0,4.9-4,8.9-8.9,8.9c-4.9,0-8.9-4-8.9-8.9
			C863.7,681.1,867.7,677.1,872.6,677.1L872.6,677.1z"/>
	</g>
	<g id="CIRCLE_5_">
		<path class="st0" d="M1058.9,687.3c4.9,0,8.9,4,8.9,8.9c0,4.9-4,8.9-8.9,8.9c-4.9,0-8.9-4-8.9-8.9
			C1050,691.3,1054,687.3,1058.9,687.3L1058.9,687.3z"/>
	</g>
	<g id="CIRCLE_6_">
		<path class="st0" d="M860.6,452.4c5.4,0,9.8,4.4,9.8,9.8c0,5.4-4.4,9.8-9.8,9.8c-5.4,0-9.8-4.4-9.8-9.8
			C850.9,456.8,855.2,452.4,860.6,452.4L860.6,452.4z"/>
	</g>
	<g id="CIRCLE_7_">
		<path class="st0" d="M860.6,409c7.4,0,13.5,6,13.5,13.5s-6,13.5-13.5,13.5c-7.4,0-13.5-6-13.5-13.5S853.2,409,860.6,409L860.6,409
			z"/>
	</g>
	<g id="SPLINE_1_">
		<path class="st0" d="M1050.3,196.6c0-4.8-1.3-10.1-4.3-14.8c-3-4.7-7.5-8.5-12.5-10.6c-3.6-1.5-7.3-2.2-10.7-2.2
			c-4.8,0-10.1,1.3-14.8,4.3c-4.6,2.9-8.3,7.3-10.5,12.2c-1.3,2.9-2,6-2.2,9c-0.2,2.4-0.1,4.8,0.4,7.2c1,5,3.5,10.1,7.3,14
			c3.9,4,9,6.7,14,7.7c1.9,0.4,3.8,0.6,5.7,0.6c4.8,0,10.1-1.3,14.8-4.3c4.7-3,8.5-7.5,10.6-12.5
			C1049.6,203.8,1050.3,200.1,1050.3,196.6"/>
	</g>
	<g id="LINE_6_">
		<line class="st0" x1="1050.3" y1="196.6" x2="1050.3" y2="196.6"/>
	</g>
	<g id="SPLINE_2_">
		<path class="st0" d="M1040.6,658.6c0,4.8,1.3,10.1,4.3,14.8c3,4.7,7.5,8.5,12.5,10.6c3.6,1.5,7.3,2.2,10.7,2.2
			c4.8,0,10.1-1.3,14.8-4.3c4.6-2.9,8.3-7.3,10.5-12.2c1.3-2.9,2-6,2.2-9c0.2-2.4,0.1-4.8-0.4-7.2c-1-5-3.5-10.1-7.3-14
			c-3.9-4-9-6.7-14-7.7c-1.9-0.4-3.8-0.6-5.7-0.6c-4.8,0-10.1,1.3-14.8,4.3c-4.7,3-8.5,7.5-10.6,12.5
			C1041.3,651.4,1040.6,655.2,1040.6,658.6"/>
	</g>
	<g id="LINE_7_">
		<line class="st0" x1="1040.6" y1="658.6" x2="1040.6" y2="658.6"/>
	</g>
	<g id="LINE_8_">
		<line class="st0" x1="646.6" y1="598.8" x2="622.2" y2="598.8"/>
	</g>
	<g id="LINE_9_">
		<line class="st0" x1="622.2" y1="598.8" x2="622.3" y2="591.7"/>
	</g>
	<g id="ARC_28_">
		<path class="st0" d="M622.3,591.7c0-0.7-0.3-1.3-0.7-1.7"/>
	</g>
	<g id="ARC_29_">
		<path class="st0" d="M620.6,587.1c-0.2,1.1,0.2,2.1,1,2.9"/>
	</g>
	<g id="LINE_10_">
		<line class="st0" x1="620.6" y1="587.1" x2="622" y2="578.3"/>
	</g>
	<g id="ARC_30_">
		<path class="st0" d="M622,578.3c0.2-1.4,0.4-2.9,0.4-4.4"/>
	</g>
	<g id="LINE_11_">
		<line class="st0" x1="622.4" y1="573.9" x2="622.8" y2="514.4"/>
	</g>
	<g id="LINE_12_">
		<line class="st0" x1="622.8" y1="514.4" x2="646.1" y2="514.4"/>
	</g>
	<g id="LINE_13_">
		<line class="st0" x1="646.1" y1="514.4" x2="646.5" y2="573.9"/>
	</g>
	<g id="ARC_31_">
		<path class="st0" d="M646.5,573.9c0,1.5,0.1,2.9,0.4,4.4"/>
	</g>
	<g id="LINE_14_">
		<line class="st0" x1="646.9" y1="578.3" x2="648.3" y2="587.1"/>
	</g>
	<g id="ARC_32_">
		<path class="st0" d="M647.3,590c0.8-0.7,1.1-1.8,1-2.9"/>
	</g>
	<g id="ARC_33_">
		<path class="st0" d="M647.3,590c-0.5,0.5-0.7,1.1-0.7,1.7"/>
	</g>
	<g id="LINE_15_">
		<line class="st0" x1="646.6" y1="591.7" x2="646.6" y2="598.8"/>
	</g>
	<g id="LWPOLYLINE">
		<path class="st0" d="M624.1,254.8v59.4c0,0.8,0.6,1.4,1.4,1.4h18c0.8,0,1.4-0.6,1.4-1.4v-59.4c0-0.8-0.6-1.4-1.4-1.4h-18
			C624.7,253.4,624.1,254,624.1,254.8z"/>
	</g>
	<g id="CIRCLE_8_">
		<path class="st0" d="M1051.2,479c4.9,0,8.9,4,8.9,8.9c0,4.9-4,8.9-8.9,8.9c-4.9,0-8.9-4-8.9-8.9C1042.3,483,1046.3,479,1051.2,479
			L1051.2,479z"/>
	</g>
	<g id="ARC_34_">
		<path class="st0" d="M1074.9,415.2c5.4-24.7,7.3-50.1,5.8-75.4"/>
	</g>
	<g id="ARC_35_">
		<path class="st0" d="M1067.8,443.6c2.7-9.4,5-18.9,7.1-28.5"/>
	</g>
	<g id="ARC_36_">
		<path class="st0" d="M1067.8,443.6c-6.9,24.2-5.5,50.1,3.8,73.5"/>
	</g>
	<g id="ARC_37_">
		<path class="st0" d="M1098,587.7c-8.3-23.7-17.1-47.2-26.4-70.6"/>
	</g>
	<g id="ARC_38_">
		<path class="st0" d="M1105.3,629.5c-0.2-14.2-2.7-28.4-7.4-41.8"/>
	</g>
	<g id="ARC_39_">
		<path class="st0" d="M1105.3,639.5c0-3.3,0-6.7,0-10"/>
	</g>
	<g id="ARC_40_">
		<path class="st0" d="M1020.8,725.4c46.6-1.3,83.9-39.2,84.5-85.8"/>
	</g>
	<g id="ARC_41_">
		<path class="st0" d="M1007.8,725.7c4.3-0.1,8.7-0.2,13-0.3"/>
	</g>
	<g id="ARC_42_">
		<path class="st0" d="M937.8,718.9c23,5,46.5,7.2,70,6.7"/>
	</g>
	<g id="ARC_43_">
		<path class="st0" d="M796.2,681.7c46.6,14.5,93.9,27,141.7,37.3"/>
	</g>
	<g id="ARC_44_">
		<path class="st0" d="M796.2,681.7c-25.9-8.1-52.3-14.3-79-18.6"/>
	</g>
	<g id="ARC_45_">
		<path class="st0" d="M671.9,655.3c15.1,2.7,30.2,5.3,45.3,7.7"/>
	</g>
	<g id="ARC_46_">
		<path class="st0" d="M621,636.9c15.8,9,33,15.2,50.9,18.4"/>
	</g>
	<g id="ELLIPSE_1_">
		<path class="st0" d="M620.4,636.6c0.2,0.1,0.4,0.2,0.6,0.4"/>
	</g>
	<g id="ARC_47_">
		<path class="st0" d="M608.6,616.4c0,8.3,4.5,16,11.7,20.2"/>
	</g>
	<g id="LINE_16_">
		<line class="st0" x1="608.6" y1="616.4" x2="608.6" y2="464.6"/>
	</g>
	<g id="LINE_17_">
		<line class="st0" x1="608.6" y1="464.6" x2="599.3" y2="467.1"/>
	</g>
	<g id="LINE_18_">
		<line class="st0" x1="599.3" y1="467.1" x2="599.3" y2="616.4"/>
	</g>
	<g id="ARC_48_">
		<path class="st0" d="M599.3,616.4c0,11.7,6.3,22.5,16.4,28.3"/>
	</g>
	<g id="ELLIPSE_2_">
		<path class="st0" d="M615.7,644.7c0.2,0.1,0.4,0.2,0.6,0.4"/>
	</g>
	<g id="ARC_49_">
		<path class="st0" d="M616.4,645.1c16.7,9.5,34.9,16.1,53.9,19.5"/>
	</g>
	<g id="ARC_50_">
		<path class="st0" d="M670.2,664.5c15.1,2.7,30.3,5.3,45.5,7.8"/>
	</g>
	<g id="ARC_51_">
		<path class="st0" d="M793.4,690.6c-25.4-7.9-51.4-14-77.7-18.3"/>
	</g>
	<g id="ARC_52_">
		<path class="st0" d="M793.4,690.6c46.9,14.6,94.4,27.1,142.5,37.5"/>
	</g>
	<g id="ARC_53_">
		<path class="st0" d="M935.9,728.1c23.7,5.1,47.9,7.4,72.1,7"/>
	</g>
	<g id="ARC_54_">
		<path class="st0" d="M1008,735c4.4-0.1,8.7-0.2,13.1-0.3"/>
	</g>
	<g id="ARC_55_">
		<path class="st0" d="M1021.1,734.7c51.6-1.5,92.9-43.4,93.6-95.1"/>
	</g>
	<g id="ARC_56_">
		<path class="st0" d="M1114.7,639.6c0-3.4,0-6.8,0-10.2"/>
	</g>
	<g id="ARC_57_">
		<path class="st0" d="M1114.7,629.4c-0.2-15.2-2.9-30.4-7.9-44.8"/>
	</g>
	<g id="ARC_58_">
		<path class="st0" d="M1106.8,584.6c-8.3-23.8-17.2-47.5-26.5-71"/>
	</g>
	<g id="ARC_59_">
		<path class="st0" d="M1076.8,446.2c-6.3,22.3-5.1,46,3.5,67.5"/>
	</g>
	<g id="ARC_60_">
		<path class="st0" d="M1076.8,446.2c2.7-9.6,5.1-19.3,7.3-29"/>
	</g>
	<g id="ARC_61_">
		<path class="st0" d="M1084,417.2c5.6-25.6,7.6-51.8,6-78"/>
	</g>
	<g id="ARC_62_">
		<path class="st0" d="M1090,339.2c-4.3-69.6-20-138-46.5-202.5"/>
	</g>
	<g id="ARC_63_">
		<path class="st0" d="M1043.5,136.7c-5.3-12.9-17-22.1-30.9-24.2"/>
	</g>
	<g id="ARC_64_">
		<path class="st0" d="M1012.7,112.5c-20.5-3.1-41.1-4.9-61.8-5.6"/>
	</g>
	<g id="LINE_19_">
		<line class="st0" x1="950.9" y1="107" x2="951.4" y2="116.3"/>
	</g>
	<g id="ARC_65_">
		<path class="st0" d="M1011.3,121.8c-19.9-3-39.9-4.8-59.9-5.5"/>
	</g>
	<g id="ARC_66_">
		<path class="st0" d="M1034.9,140.3c-4.1-9.9-13-16.9-23.6-18.5"/>
	</g>
	<g id="ARC_67_">
		<path class="st0" d="M1080.7,339.8c-4.2-68.6-19.7-136-45.8-199.5"/>
	</g>
	<g id="LINE_20_">
		<line class="st0" x1="897" y1="117.3" x2="896.7" y2="108"/>
	</g>
	<g id="ARC_68_">
		<path class="st0" d="M896.7,108c-98.5,6.8-193.1,40.6-273.6,97.8"/>
	</g>
	<g id="ARC_69_">
		<path class="st0" d="M623.1,205.8c-15,10.6-23.9,27.9-23.9,46.2"/>
	</g>
	<g id="LINE_21_">
		<line class="st0" x1="599.3" y1="252" x2="599.3" y2="307.3"/>
	</g>
	<g id="ARC_70_">
		<path class="st0" d="M608.6,310.9c-3-1.5-6.1-2.8-9.4-3.7"/>
	</g>
	<g id="LINE_22_">
		<line class="st0" x1="608.6" y1="310.9" x2="608.6" y2="252"/>
	</g>
	<g id="ARC_71_">
		<path class="st0" d="M628.6,213.4c-12.5,8.9-19.9,23.3-19.9,38.6"/>
	</g>
	<g id="ARC_72_">
		<path class="st0" d="M897,117.3c-96.6,6.7-189.5,40-268.4,96.1"/>
	</g>
</g>
<g>
	<g id="ARC_127_">
		<path class="st0" d="M1388.5,168.6c0.7-0.5,1.5-1.1,2.2-1.6"/>
	</g>
	<g>
		<g id="ARC_141_">
			<path class="st0" d="M470.4,169.1c-95.2-46-202-62.3-306.6-46.7"/>
		</g>
		<g id="ARC_140_">
			<path class="st0" d="M163.8,122.4c-10.4,1.5-19.2,8.4-23.1,18.1"/>
		</g>
		<g id="ARC_139_">
			<path class="st0" d="M140.6,140.5C114.6,204,99.1,271.3,94.9,339.8"/>
		</g>
		<g id="ARC_138_">
			<path class="st0" d="M94.9,339.8c-1.6,25.2,0.4,50.5,5.8,75.2"/>
		</g>
		<g id="ARC_137_">
			<path class="st0" d="M100.7,415c2.1,9.6,4.5,19,7.1,28.4"/>
		</g>
		<g id="ARC_136_">
			<path class="st0" d="M103.9,517.3c9.4-23.5,10.7-49.5,3.8-73.9"/>
		</g>
		<g id="ARC_135_">
			<path class="st0" d="M103.9,517.3c-9.3,23.3-18.1,46.8-26.4,70.5"/>
		</g>
		<g id="ARC_134_">
			<path class="st0" d="M77.6,587.9c-4.7,13.4-7.1,27.5-7.3,41.6"/>
		</g>
		<g id="ARC_133_">
			<path class="st0" d="M70.2,629.5c0,3.3,0,6.6,0,9.9"/>
		</g>
		<g id="ARC_132_">
			<path class="st0" d="M70.2,639.4c0.6,46.4,37.6,84,84,85.4"/>
		</g>
		<g id="ARC_131_">
			<path class="st0" d="M154.2,724.8c4.3,0.1,8.7,0.2,13,0.3"/>
		</g>
		<g id="ARC_130_">
			<path class="st0" d="M167.2,725.1c23.5,0.5,46.9-1.8,69.8-6.7"/>
		</g>
		<g id="ARC_129_">
			<path class="st0" d="M237,718.4c47.3-10.2,94.2-22.5,140.5-36.9"/>
		</g>
		<g id="ARC_128_">
			<path class="st0" d="M457.7,662.5c-26.8,4.3-53.2,10.6-79.1,18.6"/>
		</g>
		<g id="ARC_126_">
			<path class="st0" d="M442.2,636c0,11.7,7.5,22.2,18.5,26"/>
		</g>
		<g id="ARC_125_">
			<path class="st0" d="M443.9,626.5c-1.1,3.1-1.7,6.3-1.7,9.5"/>
		</g>
		<g id="LINE_39_">
			<line class="st0" x1="443.9" y1="626.5" x2="458.8" y2="610.7"/>
		</g>
		<g id="ARC_124_">
			<path class="st0" d="M497.2,636c0-15.2-12.3-27.5-27.5-27.5c-3.8,0-7.5,0.8-10.9,2.3"/>
		</g>
		<g id="ARC_123_">
			<path class="st0" d="M486.7,657.6c6.6-5.2,10.5-13.2,10.5-21.7"/>
		</g>
		<g id="ARC_122_">
			<path class="st0" d="M486.7,657.6c5.4-0.9,10.9-1.9,16.3-2.9"/>
		</g>
		<g id="ARC_121_">
			<path class="st0" d="M503,654.7c17.8-3.2,35-9.4,50.7-18.3"/>
		</g>
		<g id="ELLIPSE_5_">
			<path class="st0" d="M553.8,636.4c0.2-0.1,0.4-0.2,0.6-0.3"/>
		</g>
		<g id="ARC_120_">
			<path class="st0" d="M554.4,636.1c7.1-4,11.4-11.6,11.4-19.7"/>
		</g>
		<g id="LINE_38_">
			<line class="st0" x1="565.8" y1="616.4" x2="565.8" y2="464.4"/>
		</g>
		<g id="LINE_37_">
			<line class="st0" x1="565.8" y1="464.4" x2="507.2" y2="448.9"/>
		</g>
		<g id="ARC_119_">
			<path class="st0" d="M516.9,412c-3.5,12.2-6.7,24.5-9.7,36.9"/>
		</g>
		<g id="SPLINE_3_">
			<path class="st0" d="M516.9,412c2.4-8.3,4.6-16.7,6.6-25.1c3.1-13,5.6-26.1,10.9-38.5c4.9-11.6,12.1-22.6,21.6-30.5
				c3.1-2.6,6.4-4.8,9.9-6.7"/>
		</g>
		<g id="LINE_36_">
			<line class="st0" x1="565.8" y1="311.2" x2="565.8" y2="252"/>
		</g>
		<g id="ARC_118_">
			<path class="st0" d="M565.8,252c0-15.1-7.3-29.4-19.7-38.1"/>
		</g>
		<g id="ARC_117_">
			<path class="st0" d="M546.1,213.9c-17.5-12.4-35.7-23.7-54.5-33.9"/>
		</g>
		<g id="ARC_116_">
			<path class="st0" d="M470.4,169.1c-15.2-0.4-27.8,11.6-28.2,26.8c-0.4,15.2,11.6,27.8,26.8,28.2c15.2,0.4,27.8-11.6,28.2-26.8
				c0.2-6.3-1.8-12.4-5.6-17.3"/>
		</g>
		<g id="CIRCLE_19_">
			<path class="st0" d="M158,146.7c-4.9,0-8.9-4-8.9-8.9s4-8.9,8.9-8.9s8.9,4,8.9,8.9C167,142.7,163,146.7,158,146.7L158,146.7z"/>
		</g>
		<g id="CIRCLE_18_">
			<path class="st0" d="M368.2,155.6c-4.9,0-8.9-4-8.9-8.9s4-8.9,8.9-8.9s8.9,4,8.9,8.9C377.2,151.6,373.2,155.6,368.2,155.6
				L368.2,155.6z"/>
		</g>
		<g id="CIRCLE_17_">
			<path class="st0" d="M549.9,247.5c-4.9,0-8.9-4-8.9-8.9s4-8.9,8.9-8.9c4.9,0,8.9,4,8.9,8.9C558.8,243.5,554.8,247.5,549.9,247.5
				L549.9,247.5z"/>
		</g>
		<g id="CIRCLE_16_">
			<path class="st0" d="M546.2,625.1c-4.9,0-8.9-4-8.9-8.9c0-4.9,4-8.9,8.9-8.9c4.9,0,8.9,4,8.9,8.9
				C555.2,621.1,551.2,625.1,546.2,625.1L546.2,625.1z"/>
		</g>
		<g id="CIRCLE_15_">
			<path class="st0" d="M302.4,694.9c-4.9,0-8.9-4-8.9-8.9c0-4.9,4-8.9,8.9-8.9s8.9,4,8.9,8.9C311.3,690.9,307.3,694.9,302.4,694.9
				L302.4,694.9z"/>
		</g>
		<g id="CIRCLE_14_">
			<path class="st0" d="M116.1,705.1c-4.9,0-8.9-4-8.9-8.9c0-4.9,4-8.9,8.9-8.9c4.9,0,8.9,4,8.9,8.9
				C125,701.1,121,705.1,116.1,705.1L116.1,705.1z"/>
		</g>
		<g id="CIRCLE_13_">
			<path class="st0" d="M314.4,472c-5.4,0-9.8-4.4-9.8-9.8c0-5.4,4.4-9.8,9.8-9.8c5.4,0,9.8,4.4,9.8,9.8
				C324.1,467.6,319.8,472,314.4,472L314.4,472z"/>
		</g>
		<g id="CIRCLE_12_">
			<path class="st0" d="M314.4,436c-7.4,0-13.5-6-13.5-13.5s6-13.5,13.5-13.5s13.5,6,13.5,13.5C327.8,429.9,321.8,436,314.4,436
				L314.4,436z"/>
		</g>
		<g id="CIRCLE_11_">
			<path class="st0" d="M152.2,224.1c-15.2,0-27.5-12.3-27.5-27.5c0-15.2,12.3-27.5,27.5-27.5c15.2,0,27.5,12.3,27.5,27.5
				S167.4,224.1,152.2,224.1L152.2,224.1z"/>
		</g>
		<g id="CIRCLE_9_">
			<path class="st0" d="M106.9,686.2c-15.2,0-27.5-12.3-27.5-27.5c0-15.2,12.3-27.5,27.5-27.5s27.5,12.3,27.5,27.5
				C134.4,673.9,122.1,686.2,106.9,686.2L106.9,686.2z"/>
		</g>
		<g id="LINE_35_">
			<line class="st0" x1="552.8" y1="598.8" x2="528.4" y2="598.8"/>
		</g>
		<g id="LINE_34_">
			<line class="st0" x1="528.4" y1="598.8" x2="528.4" y2="591.7"/>
		</g>
		<g id="ARC_115_">
			<path class="st0" d="M528.4,591.7c0-0.7-0.3-1.3-0.7-1.7"/>
		</g>
		<g id="ARC_114_">
			<path class="st0" d="M526.7,587.1c-0.2,1.1,0.2,2.1,1,2.9"/>
		</g>
		<g id="LINE_33_">
			<line class="st0" x1="526.7" y1="587.1" x2="528.1" y2="578.3"/>
		</g>
		<g id="ARC_113_">
			<path class="st0" d="M528.1,578.3c0.2-1.4,0.4-2.9,0.4-4.4"/>
		</g>
		<g id="LINE_32_">
			<line class="st0" x1="528.5" y1="573.9" x2="528.9" y2="514.4"/>
		</g>
		<g id="LINE_31_">
			<line class="st0" x1="528.9" y1="514.4" x2="552.2" y2="514.4"/>
		</g>
		<g id="LINE_30_">
			<line class="st0" x1="552.2" y1="514.4" x2="552.6" y2="573.9"/>
		</g>
		<g id="ARC_112_">
			<path class="st0" d="M552.6,573.9c0,1.5,0.1,2.9,0.4,4.4"/>
		</g>
		<g id="LINE_29_">
			<line class="st0" x1="553" y1="578.3" x2="554.4" y2="587.1"/>
		</g>
		<g id="ARC_111_">
			<path class="st0" d="M553.5,590c0.8-0.7,1.1-1.8,1-2.9"/>
		</g>
		<g id="ARC_110_">
			<path class="st0" d="M553.5,590c-0.5,0.5-0.7,1.1-0.7,1.7"/>
		</g>
		<g id="LINE_28_">
			<line class="st0" x1="552.7" y1="591.7" x2="552.8" y2="598.8"/>
		</g>
		<g id="LWPOLYLINE_1_">
			<path class="st0" d="M550.9,314.2v-59.4c0-0.8-0.6-1.4-1.4-1.4h-18c-0.8,0-1.4,0.6-1.4,1.4v59.4c0,0.8,0.6,1.4,1.4,1.4l18,0
				C550.3,315.5,550.9,314.9,550.9,314.2z"/>
		</g>
		<g id="CIRCLE_10_">
			<path class="st0" d="M123.8,496.9c-4.9,0-8.9-4-8.9-8.9c0-4.9,4-8.9,8.9-8.9c4.9,0,8.9,4,8.9,8.9S128.7,496.9,123.8,496.9
				L123.8,496.9z"/>
		</g>
		<g id="ARC_109_">
			<path class="st0" d="M94.3,339.8c-1.6,25.3,0.4,50.6,5.8,75.4"/>
		</g>
		<g id="ARC_108_">
			<path class="st0" d="M140.1,140.3C114,203.8,98.6,271.2,94.3,339.8"/>
		</g>
		<g id="ARC_107_">
			<path class="st0" d="M163.7,121.8c-10.6,1.6-19.5,8.6-23.6,18.5"/>
		</g>
		<g id="ARC_106_">
			<path class="st0" d="M546.4,213.4c-111-78.8-248.1-111.7-382.7-91.6"/>
		</g>
		<g id="ARC_105_">
			<path class="st0" d="M566.4,252c0-15.3-7.4-29.7-19.9-38.6"/>
		</g>
		<g id="LINE_27_">
			<line class="st0" x1="566.4" y1="252" x2="566.4" y2="310.9"/>
		</g>
		<g id="ARC_104_">
			<path class="st0" d="M575.7,307.3c-3.2,0.9-6.4,2.1-9.4,3.7"/>
		</g>
		<g id="LINE_26_">
			<line class="st0" x1="575.7" y1="307.3" x2="575.7" y2="252"/>
		</g>
		<g id="ARC_103_">
			<path class="st0" d="M575.7,252c0-18.4-8.9-35.6-23.9-46.2"/>
		</g>
		<g id="ARC_102_">
			<path class="st0" d="M551.9,205.8c-112.9-80.2-252.5-113.6-389.5-93.2"/>
		</g>
		<g id="ARC_101_">
			<path class="st0" d="M162.3,112.5c-13.8,2.1-25.6,11.2-30.9,24.2"/>
		</g>
		<g id="ARC_100_">
			<path class="st0" d="M131.5,136.7C105,201.2,89.3,269.6,85,339.2"/>
		</g>
		<g id="ARC_99_">
			<path class="st0" d="M85,339.2c-1.6,26.1,0.4,52.4,6,78"/>
		</g>
		<g id="ARC_98_">
			<path class="st0" d="M91,417.2c2.1,9.8,4.6,19.4,7.3,29"/>
		</g>
		<g id="ARC_97_">
			<path class="st0" d="M94.7,513.7c8.6-21.5,9.8-45.2,3.5-67.5"/>
		</g>
		<g id="ARC_96_">
			<path class="st0" d="M94.7,513.7c-9.4,23.5-18.2,47.1-26.5,71"/>
		</g>
		<g id="ARC_95_">
			<path class="st0" d="M68.2,584.6c-5,14.4-7.7,29.5-7.9,44.8"/>
		</g>
		<g id="ARC_94_">
			<path class="st0" d="M60.3,629.4c0,3.4,0,6.8,0,10.2"/>
		</g>
		<g id="ARC_93_">
			<path class="st0" d="M60.3,639.6c0.7,51.7,42,93.6,93.6,95.1"/>
		</g>
		<g id="ARC_92_">
			<path class="st0" d="M153.9,734.7c4.4,0.1,8.7,0.2,13.1,0.3"/>
		</g>
		<g id="ARC_91_">
			<path class="st0" d="M167,735c24.2,0.5,48.4-1.8,72.1-7"/>
		</g>
		<g id="ARC_90_">
			<path class="st0" d="M239.1,728.1c48-10.4,95.6-22.9,142.5-37.5"/>
		</g>
		<g id="ARC_89_">
			<path class="st0" d="M459.3,672.3c-26.3,4.3-52.3,10.4-77.7,18.3"/>
		</g>
		<g id="ARC_88_">
			<path class="st0" d="M459.3,672.3c15.2-2.5,30.3-5.1,45.5-7.8"/>
		</g>
		<g id="ARC_87_">
			<path class="st0" d="M504.8,664.5c18.9-3.4,37.1-10,53.9-19.5"/>
		</g>
		<g id="ELLIPSE_4_">
			<path class="st0" d="M558.6,645.1c0.2-0.1,0.4-0.2,0.6-0.4"/>
		</g>
		<g id="ARC_86_">
			<path class="st0" d="M559.3,644.7c10.2-5.8,16.4-16.6,16.4-28.3"/>
		</g>
		<g id="LINE_25_">
			<line class="st0" x1="575.7" y1="616.4" x2="575.7" y2="467.1"/>
		</g>
		<g id="LINE_24_">
			<line class="st0" x1="575.7" y1="467.1" x2="566.4" y2="464.6"/>
		</g>
		<g id="LINE_23_">
			<line class="st0" x1="566.4" y1="464.6" x2="566.4" y2="616.4"/>
		</g>
		<g id="ARC_85_">
			<path class="st0" d="M554.6,636.6c7.2-4.1,11.7-11.8,11.7-20.2"/>
		</g>
		<g id="ELLIPSE_3_">
			<path class="st0" d="M554,636.9c0.2-0.1,0.4-0.2,0.6-0.4"/>
		</g>
		<g id="ARC_84_">
			<path class="st0" d="M503.1,655.3c17.9-3.2,35.1-9.4,50.9-18.4"/>
		</g>
		<g id="ARC_83_">
			<path class="st0" d="M457.8,663c15.1-2.5,30.2-5,45.3-7.7"/>
		</g>
		<g id="ARC_82_">
			<path class="st0" d="M457.8,663c-26.7,4.3-53.1,10.6-79,18.6"/>
		</g>
		<g id="ARC_81_">
			<path class="st0" d="M237.2,718.9c47.8-10.3,95-22.7,141.7-37.3"/>
		</g>
		<g id="ARC_80_">
			<path class="st0" d="M167.2,725.7c23.5,0.5,47-1.8,70-6.7"/>
		</g>
		<g id="ARC_79_">
			<path class="st0" d="M154.2,725.4c4.3,0.1,8.7,0.2,13,0.3"/>
		</g>
		<g id="ARC_78_">
			<path class="st0" d="M69.7,639.5c0.6,46.6,37.9,84.5,84.5,85.8"/>
		</g>
		<g id="ARC_77_">
			<path class="st0" d="M69.7,629.5c0,3.3,0,6.7,0,10"/>
		</g>
		<g id="ARC_76_">
			<path class="st0" d="M77,587.7c-4.7,13.5-7.2,27.6-7.4,41.8"/>
		</g>
		<g id="ARC_75_">
			<path class="st0" d="M103.4,517.1C94.1,540.5,85.3,564,77,587.7"/>
		</g>
		<g id="ARC_74_">
			<path class="st0" d="M103.4,517.1c9.3-23.4,10.7-49.2,3.8-73.5"/>
		</g>
		<g id="ARC_73_">
			<path class="st0" d="M100.1,415.2c2.1,9.6,4.5,19.1,7.1,28.5"/>
		</g>
	</g>
</g>
</svg>
